PathFileType	4	(X/Y/Z)	C:\Users\u0088756\Documents\documenten\software\SoftwareProjects\DC_TrackingSimulation\Data\Patient20\InputData\MarkerFile_DataSel.trc
DataRate	CameraRate	NumFrames	NumMarkers	Units	OrigDataRate	OrigDataStartFrame	OrigNumFrames
200.000000	200.000000	8	47	m	200.000000	202	230
Frame#	Times		C7		CLAV		LSHO		LUA1		LELB		LLA1		LWRA		LWRB		LFIN		RSHO		RUA1		RELB		RLA1		RWRA		RWRB		RFIN		LASI		RASI		RPSI		LPSI		LTHI		LTHI3		LKNE		LKNEmed		LTIB		LTIB2		LTIB3		LANKmed		LHEE		LTOE		LLatFoot		RTHI		RTHI2		RTHI3		RKNE		RKNEmed		RTIB		RTIB2		RTIB3		RANK		RHEE		RTOE		RLatFoot		Unlabeled50		Unlabeled51		Unlabeled52		*52
			X1	Y1	Z1	X2	Y2	Z2	X3	Y3	Z3	X4	Y4	Z4	X5	Y5	Z5	X6	Y6	Z6	X7	Y7	Z7	X8	Y8	Z8	X9	Y9	Z9	X10	Y10	Z10	X11	Y11	Z11	X12	Y12	Z12	X13	Y13	Z13	X14	Y14	Z14	X15	Y15	Z15	X16	Y16	Z16	X17	Y17	Z17	X18	Y18	Z18	X19	Y19	Z19	X20	Y20	Z20	X21	Y21	Z21	X22	Y22	Z22	X23	Y23	Z23	X24	Y24	Z24	X25	Y25	Z25	X26	Y26	Z26	X27	Y27	Z27	X28	Y28	Z28	X29	Y29	Z29	X30	Y30	Z30	X31	Y31	Z31	X32	Y32	Z32	X33	Y33	Z33	X34	Y34	Z34	X35	Y35	Z35	X36	Y36	Z36	X37	Y37	Z37	X38	Y38	Z38	X39	Y39	Z39	X40	Y40	Z40	X41	Y41	Z41	X42	Y42	Z42	X43	Y43	Z43	X44	Y44	Z44	X45	Y45	Z45	X46	Y46	Z46	X47	Y47	Z47

202	1.005	1.3086	1.407	0.057268	1.4302	1.3364	0.030703	1.3581	1.3586	-0.14166	1.2784	1.2222	-0.18926	1.2806	1.0958	-0.22584	1.3166	0.99054	-0.25373	1.3704	0.87114	-0.22353	1.3142	0.86751	-0.26757	1.3664	0.82272	-0.27247	1.3721	1.3478	0.2275	1.3766	1.1946	0.28144	1.4121	1.055	0.30143	1.5046	0.97066	0.31091	1.5862	0.88758	0.24835	1.5436	0.85747	0.29741	1.6197	0.84156	0.2879	1.4352	0.92221	-0.09056	1.4512	0.91512	0.11673	1.2552	0.95975	0.067964	1.2513	0.95914	-0.0044777	1.4563	0.65101	-0.15602	1.4479	0.60702	-0.14731	1.5128	0.49502	-0.12156	1.5236	0.48894	0.0051834	1.5415	0.4255	-0.12528	1.4643	0.42688	-0.12849	1.5008	0.38688	-0.14408	1.5164	0.12417	-0.044615	1.4265	0.072634	-0.057866	1.6155	0.078211	-0.08234	1.5337	0.05108	-0.15002	1.3806	0.63649	0.17933	1.3243	0.64176	0.19425	1.3423	0.59374	0.18037	1.3037	0.45935	0.15744	1.3189	0.4611	0.030277	1.2937	0.29956	0.16844	1.2394	0.30741	0.16796	1.2581	0.25628	0.16365	1.2522	0.089173	0.12211	1.1794	0.052081	0.065627	1.3647	0.055115	0.049922	1.3036	0.032017	0.13377	1.4046	0.032182	-0.54809	0.77756	0.025036	-0.53356	0.82401	0.025776	0.53962	1.332	0.033763	0.53846
203	1.01	1.3138	1.4065	0.057136	1.4353	1.3358	0.03067	1.363	1.358	-0.14176	1.2821	1.2219	-0.18871	1.2834	1.0955	-0.22536	1.3181	0.99004	-0.25401	1.3714	0.87005	-0.22496	1.3145	0.86705	-0.26815	1.3663	0.82198	-0.27409	1.377	1.3471	0.22741	1.3824	1.1938	0.28114	1.419	1.0545	0.30095	1.5124	0.971	0.30988	1.5947	0.88899	0.24684	1.5524	0.85821	0.29597	1.6286	0.84315	0.2862	1.4405	0.9216	-0.09047	1.4561	0.91443	0.11684	1.2602	0.95922	0.067667	1.2565	0.95855	-0.0048544	1.4614	0.65032	-0.15643	1.453	0.60633	-0.14771	1.5178	0.49418	-0.12178	1.5285	0.48786	0.0049786	1.5486	0.42548	-0.12545	1.4715	0.42458	-0.12914	1.5094	0.38556	-0.14446	1.5321	0.12364	-0.045179	1.4438	0.06959	-0.0583	1.6327	0.080295	-0.082199	1.552	0.05073	-0.15022	1.3837	0.63594	0.1788	1.3275	0.64196	0.19381	1.3454	0.59344	0.18011	1.3055	0.45935	0.15741	1.3206	0.46086	0.030355	1.2945	0.29954	0.16843	1.2402	0.30764	0.16784	1.2587	0.25643	0.16356	1.2515	0.089153	0.1222	1.1793	0.052066	0.06554	1.3647	0.054907	0.050005	1.3035	0.031933	0.1338	1.4104	0.031958	-0.54804	0.78299	0.025069	-0.53355	0.82945	0.025765	0.53965	1.3374	0.033783	0.53841
204	1.015	1.3189	1.4058	0.056995	1.4404	1.3351	0.030605	1.3678	1.3573	-0.14187	1.2858	1.2215	-0.18816	1.2863	1.0952	-0.2248	1.3198	0.98964	-0.25421	1.3721	0.86899	-0.22651	1.3147	0.86683	-0.26916	1.3662	0.82127	-0.27571	1.3819	1.3464	0.22732	1.3881	1.1931	0.28079	1.4259	1.054	0.30049	1.52	0.97131	0.30879	1.6029	0.89031	0.2454	1.5612	0.85894	0.29452	1.6374	0.84474	0.2845	1.4457	0.92094	-0.090396	1.461	0.91378	0.11693	1.2651	0.95859	0.067335	1.2615	0.95794	-0.0051604	1.4666	0.64954	-0.15673	1.4582	0.60556	-0.14793	1.5232	0.49334	-0.12213	1.5332	0.48665	0.0046304	1.5558	0.42551	-0.12577	1.4786	0.42226	-0.12976	1.5178	0.38443	-0.14495	1.5479	0.12339	-0.045365	1.4611	0.066819	-0.058852	1.6497	0.082731	-0.081811	1.5702	0.050644	-0.15019	1.3868	0.6353	0.17833	1.3309	0.64205	0.19358	1.3482	0.5931	0.1799	1.3072	0.45937	0.15733	1.3224	0.46056	0.030388	1.2953	0.29951	0.16847	1.2411	0.30786	0.16768	1.2592	0.2566	0.16337	1.2522	0.089363	0.1219	1.1792	0.052108	0.065552	1.3647	0.054686	0.050031	1.3034	0.031862	0.13382	1.4156	0.032148	-0.54819	0.78848	0.025141	-0.53344	0.83492	0.025788	0.53968	1.3428	0.033753	0.53848
205	1.02	1.324	1.4051	0.056764	1.4455	1.3344	0.030531	1.3728	1.3567	-0.14202	1.2896	1.221	-0.18763	1.2892	1.0949	-0.22426	1.3214	0.98924	-0.2545	1.3734	0.868	-0.22778	1.3153	0.86655	-0.26969	1.3661	0.82059	-0.27746	1.3869	1.3458	0.22722	1.3938	1.1924	0.28043	1.4326	1.0534	0.30002	1.5276	0.97161	0.30788	1.6109	0.89157	0.24396	1.5698	0.85964	0.29307	1.6462	0.84627	0.28281	1.451	0.92025	-0.09036	1.4659	0.91312	0.11699	1.2701	0.95804	0.066929	1.2668	0.95726	-0.0055145	1.4716	0.64867	-0.15703	1.4632	0.60468	-0.14851	1.5282	0.49249	-0.12264	1.5377	0.48531	0.0041859	1.5628	0.42546	-0.12606	1.4857	0.42004	-0.13042	1.5259	0.38336	-0.14547	1.5634	0.12331	-0.045599	1.4782	0.06425	-0.059528	1.6665	0.085466	-0.081274	1.5883	0.050886	-0.15002	1.39	0.63474	0.17792	1.3341	0.64167	0.19352	1.3512	0.59278	0.17968	1.3092	0.45933	0.15736	1.3237	0.46026	0.030073	1.2962	0.29946	0.16846	1.242	0.30805	0.16751	1.2599	0.25673	0.16328	1.2519	0.089443	0.12194	1.1793	0.052104	0.065515	1.3647	0.054498	0.050108	1.3034	0.031785	0.13385	1.4209	0.031971	-0.54826	0.79397	0.025078	-0.53352	0.84039	0.025803	0.53966	1.3483	0.033611	0.53833
206	1.025	1.3291	1.4044	0.056564	1.4506	1.3336	0.030428	1.3777	1.356	-0.14216	1.2934	1.2205	-0.18711	1.2922	1.0946	-0.22372	1.3232	0.98874	-0.25474	1.3746	0.86708	-0.22905	1.316	0.86624	-0.2702	1.3661	0.81991	-0.27906	1.392	1.3451	0.22717	1.3994	1.1916	0.28001	1.4393	1.0528	0.29952	1.5351	0.97186	0.30685	1.619	0.89283	0.2425	1.5783	0.86033	0.29159	1.6549	0.84794	0.28115	1.4563	0.91947	-0.09031	1.4708	0.91242	0.11705	1.2754	0.95735	0.066191	1.272	0.95652	-0.0058794	1.4761	0.64793	-0.15741	1.4681	0.60368	-0.14891	1.5335	0.49144	-0.12312	1.5423	0.48394	0.0037745	1.5696	0.42542	-0.12636	1.4927	0.41791	-0.13111	1.5342	0.3821	-0.14571	1.5785	0.12345	-0.045745	1.4957	0.061388	-0.061015	1.6829	0.088463	-0.080547	1.6064	0.051575	-0.14974	1.3933	0.63424	0.17755	1.338	0.64154	0.19362	1.3543	0.59245	0.1795	1.3106	0.45932	0.15736	1.3253	0.46017	0.029968	1.297	0.29941	0.16847	1.2429	0.30833	0.1674	1.2605	0.25688	0.1632	1.2518	0.089533	0.12188	1.1792	0.052228	0.065574	1.365	0.054516	0.050594	1.3033	0.031712	0.13388	1.4265	0.031933	-0.54828	0.79963	0.025047	-0.53375	0.84584	0.025749	0.53966	1.3538	0.033641	0.53833
207	1.03	1.3343	1.4036	0.056337	1.4557	1.3328	0.03026	1.3826	1.3553	-0.14236	1.2973	1.22	-0.18664	1.2952	1.0941	-0.22319	1.325	0.98834	-0.25494	1.3754	0.86616	-0.2308	1.3162	0.86576	-0.27082	1.3662	0.8192	-0.28058	1.397	1.3443	0.22695	1.4051	1.1907	0.27959	1.446	1.0523	0.29902	1.5425	0.97207	0.30588	1.627	0.89406	0.24104	1.5868	0.86101	0.2901	1.6635	0.84944	0.27946	1.4616	0.91868	-0.090296	1.4759	0.91173	0.11707	1.2812	0.95641	0.065792	1.2773	0.95578	-0.0062669	1.4814	0.64655	-0.1576	1.4728	0.60253	-0.14937	1.5387	0.49043	-0.1237	1.5466	0.48247	0.0033894	1.5763	0.42533	-0.12666	1.4997	0.41583	-0.13189	1.5417	0.38123	-0.14621	1.593	0.12353	-0.046338	1.5124	0.059266	-0.061679	1.6991	0.091723	-0.079694	1.6242	0.052646	-0.14939	1.3966	0.63368	0.17725	1.3415	0.64122	0.19353	1.3572	0.59198	0.17937	1.313	0.45924	0.15735	1.3276	0.46009	0.030102	1.2981	0.29938	0.16847	1.244	0.30855	0.16721	1.2613	0.25701	0.16312	1.2519	0.089653	0.12182	1.1793	0.052233	0.06561	1.365	0.054308	0.050502	1.3034	0.031615	0.13387	1.4319	0.031978	-0.5483	0.80477	0.025068	-0.53353	0.8513	0.025769	0.53966	1.3593	0.033632	0.53825
208	1.035	1.3394	1.4028	0.056092	1.4608	1.332	0.030097	1.3875	1.3546	-0.14259	1.3013	1.2195	-0.1862	1.2983	1.0937	-0.22271	1.3269	0.98784	-0.25518	1.3767	0.86506	-0.23211	1.3168	0.86541	-0.27135	1.3664	0.81853	-0.2821	1.4019	1.3435	0.22674	1.4107	1.1899	0.27914	1.4526	1.0516	0.29843	1.5499	0.97228	0.30474	1.6349	0.89525	0.2396	1.5951	0.86165	0.28861	1.6719	0.85093	0.27782	1.467	0.91783	-0.090297	1.4809	0.91103	0.11705	1.2861	0.95575	0.064975	1.2826	0.95497	-0.00659	1.4862	0.64538	-0.15796	1.4776	0.6013	-0.14982	1.5439	0.48938	-0.1242	1.5507	0.48083	0.0031267	1.583	0.42523	-0.12693	1.5066	0.4138	-0.1327	1.5493	0.38036	-0.14674	1.6078	0.12439	-0.046415	1.5291	0.057423	-0.062637	1.7148	0.095223	-0.078739	1.6418	0.054014	-0.14901	1.3998	0.6331	0.17699	1.3449	0.64084	0.19352	1.3597	0.59169	0.17911	1.3151	0.45911	0.15735	1.3303	0.46002	0.030208	1.2992	0.29936	0.16847	1.2452	0.30881	0.16709	1.2622	0.2572	0.16303	1.252	0.089793	0.12176	1.1793	0.052278	0.065613	1.365	0.054129	0.050583	1.3033	0.03156	0.13389	1.4374	0.031914	-0.5483	0.81035	0.025131	-0.5335	0.85679	0.025782	0.53964	1.3647	0.033676	0.53837
209	1.04	1.3446	1.4019	0.055799	1.466	1.3311	0.029911	1.3925	1.3538	-0.14282	1.3054	1.2189	-0.18577	1.3015	1.0933	-0.22222	1.3288	0.98732	-0.25543	1.3781	0.86405	-0.23338	1.3175	0.86501	-0.27183	1.3667	0.81786	-0.28355	1.4068	1.3426	0.22642	1.4162	1.1889	0.27865	1.4591	1.0509	0.29787	1.5571	0.97241	0.30371	1.6427	0.89642	0.23814	1.6034	0.86229	0.28713	1.6803	0.85239	0.27618	1.4724	0.91695	-0.09033	1.4862	0.9104	0.11684	1.2914	0.95495	0.064926	1.2878	0.95414	-0.0069689	1.4909	0.64409	-0.15826	1.4822	0.6	-0.15039	1.5491	0.48826	-0.12473	1.555	0.47932	0.0026076	1.5896	0.4251	-0.12722	1.5135	0.41182	-0.13353	1.5576	0.37946	-0.14743	1.6223	0.12501	-0.045915	1.5456	0.05578	-0.06341	1.7302	0.098953	-0.077784	1.6592	0.055544	-0.1486	1.4033	0.63263	0.17681	1.3482	0.64074	0.19345	1.363	0.59129	0.17903	1.3178	0.45895	0.15728	1.3331	0.45992	0.030317	1.3005	0.29931	0.16847	1.2465	0.30912	0.16694	1.2634	0.25739	0.16284	1.2522	0.089953	0.12168	1.1794	0.052372	0.065639	1.3651	0.053954	0.050642	1.3034	0.031457	0.13393	1.443	0.032179	-0.54825	0.81581	0.025089	-0.53345	0.86224	0.025758	0.53961	1.3702	0.033624	0.53833
